<?xml version="1.0" encoding="utf-8"?>
<!-- Generator: Adobe Illustrator 18.0.0, SVG Export Plug-In . SVG Version: 6.00 Build 0)  -->
<!DOCTYPE svg PUBLIC "-//W3C//DTD SVG 1.1//EN" "http://www.w3.org/Graphics/SVG/1.1/DTD/svg11.dtd">
<svg version="1.1" id="Layer_1" xmlns="http://www.w3.org/2000/svg" xmlns:xlink="http://www.w3.org/1999/xlink" x="0px" y="0px"
	 viewBox="0 0 1024 1024" enable-background="new 0 0 1024 1024" xml:space="preserve">
<path fill="#FFFFFF" d="M1024,576V448H847.5L528,767.5c-50.9,3.1-102.1-9-146.1-34.9l537.3-537.3l-90.5-90.5L734.5,199
	C688.2,166,634.3,143.1,576,133.3V0L448,0v133.3c-58.3,9.8-112.2,32.7-158.5,65.7l-94.3-94.3l-90.5,90.5l94.3,94.3
	C166,335.8,143.1,389.7,133.3,448H0l0,128l176.5,0L496,256.5c50.9-3.1,102.1,9,146.1,34.9L104.7,828.8l90.5,90.5l94.3-94.3
	c46.3,32.9,100.2,55.9,158.5,65.7l0,133.3l128,0V890.7c58.3-9.8,112.2-32.7,158.5-65.7l94.3,94.3l90.5-90.5L825,734.5
	c32.9-46.3,55.9-100.2,65.7-158.5H1024z"/>
</svg>
